<svg viewBox="0 0 20 20" fill="none" xmlns="http://www.w3.org/2000/svg">
<path d="M6.14851 8.49164L4.2873 10.3528C3.59219 11.048 3.19246 11.9938 3.19976 12.9878C3.20707 13.9818 3.59805 14.9334 4.32615 15.639C5.03172 16.3671 5.98349 16.7581 6.97734 16.7654C7.99386 16.7728 8.91728 16.3956 9.61243 15.7005L11.4736 13.8393M13.851 11.5074L15.7122 9.64619C16.4073 8.95108 16.8071 8.00528 16.7997 7.01127C16.7924 6.01725 16.4015 5.06568 15.6734 4.36007C14.968 3.65467 14.0163 3.26366 13.0223 3.25635C12.0283 3.24905 11.0824 3.62609 10.3872 4.32122L8.52603 6.18244M7.17734 12.7722L12.761 7.18852" stroke="" stroke-width="1.5" stroke-linecap="round" stroke-linejoin="round"/>
</svg>
