<svg viewBox="0 0 18 18" fill="none" xmlns="http://www.w3.org/2000/svg">
<path d="M8.79458 15.1715V4.0629M8.79458 15.1715L7.70147 14.0784C7.08421 13.4611 6.2474 13.1143 5.37445 13.1143H2.62243C2.16798 13.1143 1.80029 12.7459 1.80029 12.2915V3.65147C1.80029 3.19702 2.1687 2.82861 2.62315 2.82861H5.78551C6.65845 2.82861 7.49564 3.17539 8.1129 3.79265L8.79458 4.47433L9.47625 3.79265C10.0935 3.17539 10.9307 2.82861 11.8036 2.82861H15.3774C15.8319 2.82861 16.2003 3.19702 16.2003 3.65147V12.2915C16.2003 12.7459 15.8319 13.1143 15.3774 13.1143H12.2151C11.3421 13.1143 10.5049 13.4611 9.88768 14.0784L8.79458 15.1715Z" stroke="" stroke-width="1.5" stroke-linecap="round" stroke-linejoin="round"/>
</svg>
