<svg viewBox="0 0 24 24" fill="none" xmlns="http://www.w3.org/2000/svg">
<path d="M11.7714 19V6.4M11.7714 19L10.5569 17.7601C9.87102 17.06 8.94123 16.6667 7.97129 16.6667H4.91349C4.40854 16.6667 4 16.2488 4 15.7333V5.93333C4 5.41787 4.40934 5 4.91429 5H8.42802C9.39795 5 10.3282 5.39333 11.014 6.09347L11.7714 6.86667L12.5288 6.09347C13.2147 5.39333 14.1449 5 15.1148 5H19.0857C19.5907 5 20 5.41787 20 5.93333V15.7333C20 16.2488 19.5907 16.6667 19.0857 16.6667H15.572C14.602 16.6667 13.6718 17.06 12.986 17.7601L11.7714 19Z" stroke="#191919" stroke-width="1.5" stroke-linecap="round" stroke-linejoin="round"/>
</svg>
