<svg width="32" height="32" viewBox="0 0 32 32" fill="none" xmlns="http://www.w3.org/2000/svg">
<path d="M19.5902 4V8.5C19.5902 9.32843 20.2331 10 21.0261 10H25.3337M11.693 10H14.5647M11.693 14.5H20.3081M11.693 19H20.3081M23.1799 6.25C22.5408 5.65268 21.8777 4.94422 21.459 4.4841C21.1805 4.17792 20.7956 4 20.3912 4H9.53883C7.95283 4 6.66711 5.34314 6.6671 6.99998L6.66699 24.9999C6.66698 26.6568 7.95269 27.9999 9.53871 27.9999L22.4615 28C24.0475 28 25.3332 26.6569 25.3333 25.0001L25.3336 9.09729C25.3337 8.71374 25.1936 8.34505 24.9388 8.06892C24.4676 7.55831 23.6807 6.71815 23.1799 6.25Z" stroke="#EA0000" stroke-width="2" stroke-linecap="round" stroke-linejoin="round"/>
</svg>
