<svg viewBox="0 0 20 20" fill="none" xmlns="http://www.w3.org/2000/svg">
<path d="M13.3473 1.66699H6.62234C5.3083 1.66854 4.04853 2.19128 3.11945 3.12052C2.19036 4.04977 1.66783 5.30962 1.6665 6.62366L1.6665 13.3487C1.66805 14.6627 2.19079 15.9225 3.12003 16.8516C4.04928 17.7806 5.30913 18.3032 6.62317 18.3045H13.3482C14.6622 18.3029 15.922 17.7802 16.8511 16.851C17.7802 15.9217 18.3027 14.6619 18.304 13.3478V6.62283C18.3025 5.30879 17.7797 4.04902 16.8505 3.11993C15.9212 2.19084 14.6614 1.66832 13.3473 1.66699ZM16.6307 13.3478C16.6307 13.779 16.5457 14.206 16.3807 14.6043C16.2157 15.0027 15.9739 15.3646 15.669 15.6695C15.3641 15.9744 15.0022 16.2162 14.6038 16.3812C14.2055 16.5462 13.7785 16.6312 13.3473 16.6312H6.62234C5.75169 16.6309 4.91677 16.2849 4.30121 15.6692C3.68564 15.0535 3.33984 14.2185 3.33984 13.3478V6.62283C3.34006 5.75218 3.68608 4.91726 4.3018 4.3017C4.91752 3.68613 5.75252 3.34033 6.62317 3.34033H13.3482C14.2188 3.34055 15.0537 3.68657 15.6693 4.30229C16.2849 4.91801 16.6307 5.75301 16.6307 6.62366V13.3478Z" fill="black"/>
<path d="M9.98477 5.68262C8.8443 5.68438 7.75105 6.13827 6.94469 6.94479C6.13833 7.75131 5.68465 8.84464 5.68311 9.98512C5.68443 11.1259 6.13812 12.2196 6.94469 13.0263C7.75125 13.833 8.84484 14.2869 9.98561 14.2885C11.1265 14.2871 12.2203 13.8333 13.0271 13.0266C13.8338 12.2198 14.2876 11.126 14.2889 9.98512C14.2872 8.84435 13.8331 7.75085 13.0262 6.94445C12.2193 6.13804 11.1255 5.68455 9.98477 5.68345V5.68262ZM9.98477 12.6151C9.28747 12.6151 8.61873 12.3381 8.12567 11.8451C7.63261 11.352 7.35561 10.6832 7.35561 9.98595C7.35561 9.28865 7.63261 8.61991 8.12567 8.12685C8.61873 7.63378 9.28747 7.35678 9.98477 7.35678C10.6821 7.35678 11.3508 7.63378 11.8439 8.12685C12.3369 8.61991 12.6139 9.28865 12.6139 9.98595C12.6139 10.6832 12.3369 11.352 11.8439 11.8451C11.3508 12.3381 10.6821 12.6151 9.98477 12.6151Z" fill="black"/>
<path d="M14.2965 6.74624C14.8658 6.74624 15.3273 6.28472 15.3273 5.7154C15.3273 5.14609 14.8658 4.68457 14.2965 4.68457C13.7271 4.68457 13.2656 5.14609 13.2656 5.7154C13.2656 6.28472 13.7271 6.74624 14.2965 6.74624Z" fill="black"/>
</svg>
