<svg viewBox="0 0 20 20" xmlns="http://www.w3.org/2000/svg">
<path d="M17 10.9703V16H13.9992V11.307C13.9992 10.1278 13.5651 9.32346 12.4792 9.32346C11.6501 9.32346 11.1563 9.86603 10.9396 10.3902C10.8603 10.5777 10.84 10.8387 10.84 11.1011V16H7.83782C7.83782 16 7.8785 8.05222 7.83782 7.22814H10.84V8.47142L10.8203 8.50005H10.84V8.47142C11.2384 7.875 11.9503 7.02228 13.5447 7.02228C15.5193 7.02228 17 8.27648 17 10.9703ZM4.69818 3C3.67198 3 3 3.65436 3 4.51526C3 5.35707 3.65234 6.0312 4.6589 6.0312H4.67854C5.72579 6.0312 6.37602 5.35707 6.37602 4.51526C6.35778 3.65436 5.72579 3 4.69818 3ZM3.17817 16H6.17892V7.22814H3.17817V16Z" fill="" stroke="white"/>
</svg>
