<svg viewBox="0 0 48 48" fill="none" xmlns="http://www.w3.org/2000/svg">
	<g>
		<path d="M34 40H12C10.4087 40 8.88258 39.3679 7.75736 38.2426C6.63214 37.1174 6 35.5913 6 34C6 32.4087 6.63214 30.8826 7.75736 29.7574C8.88258 28.6321 10.4087 28 12 28H34C32.4087 28 30.8826 28.6321 29.7574 29.7574C28.6321 30.8826 28 32.4087 28 34C28 35.5913 28.6321 37.1174 29.7574 38.2426C30.8826 39.3679 32.4087 40 34 40ZM34 40H36C37.5913 40 39.1174 39.3679 40.2426 38.2426C41.3679 37.1174 42 35.5913 42 34V12C42 10.9391 41.5786 9.92172 40.8284 9.17157C40.0783 8.42143 39.0609 8 38 8H18C16.9391 8 15.9217 8.42143 15.1716 9.17157C14.4214 9.92172 14 10.9391 14 12V28" stroke="" stroke-width="3" stroke-linecap="round" stroke-linejoin="round" />
	</g>
</svg>
