<svg width="40" height="40" viewBox="0 0 40 40" fill="none" xmlns="http://www.w3.org/2000/svg">
<rect width="40" height="40" rx="20" fill="#ECECEC"/>
<g clip-path="url(#clip0_642_6742)">
<path fill-rule="evenodd" clip-rule="evenodd" d="M25.6873 12.6112C25.9025 12.5127 26.138 12.4788 26.3693 12.5129C26.6006 12.5469 26.8193 12.6478 27.0027 12.8049C27.186 12.962 27.3272 13.1697 27.4116 13.4062C27.496 13.6428 27.5206 13.8997 27.4827 14.15L25.5079 27.1699C25.3164 28.4258 24.0486 29.1461 22.989 28.5205C22.1026 27.9971 20.7861 27.1908 19.602 26.3494C19.0099 25.9282 17.1962 24.5796 17.4191 23.6199C17.6107 22.7994 20.6581 19.7159 22.3995 17.8827C23.083 17.1625 22.7713 16.747 21.9642 17.4095C19.9598 19.0544 16.7417 21.5558 15.6777 22.2599C14.7391 22.8808 14.2498 22.9868 13.6647 22.8808C12.5972 22.6877 11.6072 22.3886 10.7992 22.0243C9.70735 21.5321 9.76046 19.9005 10.7983 19.4254L25.6873 12.6112Z" fill="#888888"/>
</g>
<defs>
<clipPath id="clip0_642_6742">
<rect width="25" height="25" fill="white" transform="translate(7.5 7.5)"/>
</clipPath>
</defs>
</svg>
