<svg viewBox="0 0 20 20" xmlns="http://www.w3.org/2000/svg">
	<g>
		<path d="M14.5498 4.08894C14.722 4.01019 14.9104 3.98303 15.0954 4.01028C15.2805 4.03754 15.4555 4.11821 15.6021 4.24391C15.7488 4.36961 15.8617 4.53573 15.9293 4.72499C15.9968 4.91425 16.0165 5.11973 15.9861 5.32004L14.4063 15.736C14.2531 16.7407 13.2389 17.3169 12.3912 16.8164C11.6821 16.3977 10.6289 15.7526 9.68158 15.0795C9.20792 14.7426 7.75699 13.6637 7.93531 12.8959C8.08855 12.2395 10.5265 9.77275 11.9196 8.30618C12.4664 7.73 12.2171 7.39762 11.5713 7.92761C9.96787 9.24352 7.39338 11.2446 6.54219 11.8079C5.7913 12.3046 5.39983 12.3894 4.93174 12.3046C4.07776 12.1502 3.28577 11.9109 2.63936 11.6194C1.76588 11.2257 1.80837 9.9204 2.63867 9.54031L14.5498 4.08894Z" fill="" stroke="white" />
	</g>
</svg>
