<svg viewBox="0 0 20 20" xmlns="http://www.w3.org/2000/svg">
<path d="M15.8757 4.09155C15.1117 3.31982 14.2016 2.70794 13.1987 2.2916C12.1957 1.87525 11.1199 1.66277 10.034 1.66655C5.48398 1.66655 1.77565 5.37489 1.77565 9.92489C1.77565 11.3832 2.15898 12.7999 2.87565 14.0499L1.70898 18.3332L6.08398 17.1832C7.29232 17.8416 8.65065 18.1916 10.034 18.1916C14.584 18.1916 18.2923 14.4832 18.2923 9.93322C18.2923 7.72489 17.434 5.64989 15.8757 4.09155ZM10.034 16.7916C8.80065 16.7916 7.59232 16.4582 6.53398 15.8332L6.28398 15.6832L3.68398 16.3666L4.37565 13.8332L4.20898 13.5749C3.52377 12.4807 3.15993 11.2159 3.15898 9.92489C3.15898 6.14155 6.24232 3.05822 10.0257 3.05822C11.859 3.05822 13.584 3.77489 14.8757 5.07489C15.5152 5.71152 16.0221 6.46877 16.3668 7.30274C16.7116 8.13671 16.8873 9.03081 16.884 9.93322C16.9007 13.7166 13.8173 16.7916 10.034 16.7916ZM13.8007 11.6582C13.5923 11.5582 12.5757 11.0582 12.3923 10.9832C12.2007 10.9166 12.0673 10.8832 11.9257 11.0832C11.784 11.2916 11.3923 11.7582 11.2757 11.8916C11.159 12.0332 11.034 12.0499 10.8257 11.9416C10.6173 11.8416 9.95065 11.6166 9.16732 10.9166C8.55065 10.3666 8.14232 9.69155 8.01732 9.48322C7.90065 9.27489 8.00065 9.16655 8.10898 9.05822C8.20065 8.96655 8.31732 8.81655 8.41732 8.69989C8.51732 8.58322 8.55898 8.49155 8.62565 8.35822C8.69232 8.21655 8.65898 8.09989 8.60898 7.99989C8.55898 7.89989 8.14232 6.88322 7.97565 6.46655C7.80898 6.06655 7.63398 6.11655 7.50898 6.10822H7.10898C6.96732 6.10822 6.75065 6.15822 6.55898 6.36655C6.37565 6.57489 5.84232 7.07489 5.84232 8.09155C5.84232 9.10822 6.58398 10.0916 6.68398 10.2249C6.78398 10.3666 8.14232 12.4499 10.209 13.3416C10.7007 13.5582 11.084 13.6832 11.384 13.7749C11.8757 13.9332 12.3257 13.9082 12.684 13.8582C13.084 13.7999 13.909 13.3582 14.0757 12.8749C14.2507 12.3916 14.2507 11.9832 14.1923 11.8916C14.134 11.7999 14.009 11.7582 13.8007 11.6582Z" stroke="" stroke-width="1" stroke-linecap="round" stroke-linejoin="round"/>
</svg>
