<svg viewBox="0 0 20 20" xmlns="http://www.w3.org/2000/svg">
<path fill-rule="evenodd" clip-rule="evenodd" d="M18.0833 6.69684C18.0053 6.10465 17.7792 5.54172 17.4258 5.06017C16.9879 4.61904 16.394 4.3679 15.7725 4.361C13.4667 4.19434 10.0008 4.19434 10.0008 4.19434C10.0008 4.19434 6.53667 4.19434 4.2275 4.361C3.60625 4.36812 3.01271 4.61924 2.575 5.06017C2.21928 5.54081 1.99263 6.10456 1.91667 6.69767C1.81344 7.58461 1.7578 8.47644 1.75 9.36934V10.6193C1.7578 11.5122 1.81344 12.4041 1.91667 13.291C1.995 13.8843 2.22 14.4493 2.57 14.9343C3.07333 15.381 3.72 15.6318 4.3925 15.641C5.71167 15.7668 10.0017 15.8077 10.0017 15.8077C10.0017 15.8077 13.4692 15.8077 15.775 15.641C16.397 15.6341 16.9912 15.3826 17.4292 14.941C17.7808 14.4583 18.0063 13.8955 18.085 13.3035C18.1882 12.4166 18.2439 11.5247 18.2517 10.6318V9.3685C18.2418 8.47564 18.1856 7.58388 18.0833 6.69684ZM8.34 12.1585V7.47517L12.84 9.82434L8.34 12.1585Z" fill="black"/>
</svg>
