<svg width="24" height="24" viewBox="0 0 24 24" fill="none" xmlns="http://www.w3.org/2000/svg">
<g clip-path="url(#clip0_586_14686)">
<path d="M23.6482 21.6435H22.7773C22.6853 20.5273 22.0786 19.5229 21.1823 18.9024L21.651 16.1094C22.0167 16.0746 22.3685 15.9447 22.6757 15.7258C23.1361 15.3976 23.4412 14.9098 23.5347 14.3522L23.6065 13.9243C23.6557 13.631 23.457 13.3523 23.1638 13.3031L18.5554 12.53C18.4131 12.506 18.2704 12.5391 18.1531 12.6228C18.0357 12.7064 17.958 12.8308 17.9341 12.9729L17.8624 13.4006C17.7688 13.9583 17.898 14.5189 18.2262 14.9793C18.4451 15.2864 18.7352 15.5239 19.0694 15.6761L18.6323 18.2838C18.4865 18.3028 18.3413 18.3296 18.1972 18.3663C17.4418 18.5589 16.6464 18.3385 16.07 17.7761C15.4397 17.1607 14.6469 16.7542 13.7771 16.6006C13.5311 16.5572 13.2824 16.5355 13.0339 16.5348V12.1286H13.0475C13.4485 12.1286 13.7747 11.8024 13.7747 11.4014V9.95893C13.7747 9.76458 13.6172 9.6071 13.4228 9.6071C13.2285 9.6071 13.071 9.76458 13.071 9.95893V11.4014C13.071 11.4143 13.0604 11.4249 13.0475 11.4249H1.11296C1.10025 11.4249 1.0895 11.4141 1.0895 11.4014V7.77284C1.0895 7.76012 1.10025 7.74938 1.11296 7.74938H3.1517V9.03661C3.1517 9.33408 3.39372 9.57609 3.69118 9.57609H5.50996C5.80742 9.57609 6.04943 9.33408 6.04943 9.03661V7.74938H8.11163V9.03661C8.11163 9.33408 8.35364 9.57609 8.65111 9.57609H10.4694C10.7668 9.57609 11.0088 9.33408 11.0088 9.03661V7.74938H13.0476C13.0605 7.74938 13.071 7.75994 13.071 7.77284V8.31705C13.071 8.5114 13.2285 8.66888 13.4229 8.66888C13.6172 8.66888 13.7747 8.5114 13.7747 8.31705V7.77284C13.7747 7.37189 13.4485 7.04572 13.0476 7.04572H10.8447C10.5472 7.04572 10.3052 7.28773 10.3052 7.58519V8.87243H8.81529V7.58519C8.81529 7.28773 8.57328 7.04572 8.27582 7.04572H8.11163V5.98183L10.4613 4.62559C10.5984 4.54622 10.6836 4.39835 10.6836 4.23975C10.6836 4.0811 10.5984 3.93328 10.4609 3.85367L8.11163 2.49725V2.38044C8.11163 1.97949 7.78546 1.65332 7.38451 1.65332H6.77655C6.3756 1.65332 6.04943 1.97949 6.04943 2.38044V7.04572H5.88524C5.58778 7.04572 5.34577 7.28773 5.34577 7.58519V8.87243H3.85537V7.58519C3.85537 7.28773 3.61335 7.04572 3.31589 7.04572H1.11296C0.712012 7.04572 0.385842 7.37189 0.385842 7.77284V11.4014C0.385842 11.8024 0.712012 12.1286 1.11296 12.1286H1.12656V19.069C1.12656 19.2633 1.28404 19.4208 1.47839 19.4208C1.67275 19.4208 1.83023 19.2633 1.83023 19.069V12.1285H12.3303V21.6435H9.69623V18.5077C9.69623 17.6929 9.03334 17.03 8.21854 17.03H5.94243C5.12763 17.03 4.46474 17.6929 4.46474 18.5077V21.6435H1.83023V20.7107C1.83023 20.5164 1.67275 20.3589 1.47839 20.3589C1.28404 20.3589 1.12656 20.5164 1.12656 20.7107V21.6435H0.351831C0.15748 21.6435 0 21.801 0 21.9954C0 22.1897 0.15748 22.3472 0.351831 22.3472H23.6482C23.8425 22.3472 24 22.1897 24 21.9954C24 21.801 23.8425 21.6435 23.6482 21.6435ZM9.72222 4.23965L8.11158 5.16929V3.30969L9.72222 4.23965ZM6.75305 2.38034C6.75305 2.36763 6.76379 2.35689 6.7765 2.35689H7.38447C7.39699 2.35689 7.40792 2.36782 7.40792 2.38034V7.04563H6.75305V2.38034ZM19.7508 18.31C19.617 18.2862 19.4832 18.27 19.3495 18.2609L19.7514 15.8637L20.9451 16.064L20.5293 18.5416C20.2828 18.4369 20.0222 18.3582 19.7508 18.31ZM18.7992 14.5708C18.5801 14.2635 18.4939 13.8892 18.5563 13.5169L18.6009 13.251L22.8854 13.9698L22.8408 14.2357C22.7783 14.608 22.5747 14.9336 22.2673 15.1527C21.9598 15.3717 21.5853 15.4578 21.2134 15.3955L19.7161 15.1444C19.3439 15.0819 19.0183 14.8782 18.7992 14.5708ZM13.0339 17.2383C13.2415 17.239 13.4493 17.2572 13.6548 17.2934C14.3846 17.4223 15.0497 17.7633 15.5785 18.2796C16.3321 19.0148 17.3761 19.3022 18.371 19.048C18.7831 18.9431 19.2059 18.9278 19.6276 19.0028C20.9392 19.2358 21.9377 20.3404 22.0705 21.6435H13.0339V17.2383ZM5.1684 18.5077C5.1684 18.0809 5.51563 17.7336 5.94243 17.7336H8.21854C8.64534 17.7336 8.99257 18.0809 8.99257 18.5077V21.6435H5.1684V18.5077Z" fill="black"/>
</g>
<defs>
<clipPath id="clip0_586_14686">
<rect width="24" height="24" fill="white"/>
</clipPath>
</defs>
</svg>
