<svg width="24" height="24" viewBox="0 0 24 24" fill="none" xmlns="http://www.w3.org/2000/svg">
<g clip-path="url(#clip0_586_14679)">
<path d="M10.6758 15.121C12.3714 15.121 13.7509 13.7415 13.7509 12.0459C13.7509 10.3502 12.3714 8.9707 10.6758 8.9707C8.98011 8.9707 7.60059 10.3502 7.60059 12.0459C7.60059 13.7415 8.98011 15.121 10.6758 15.121ZM10.6758 9.6907C11.9744 9.6907 13.0309 10.7472 13.0309 12.0459C13.0309 13.3446 11.9743 14.401 10.6758 14.401C9.37711 14.401 8.32059 13.3445 8.32059 12.0459C8.32059 10.7472 9.37711 9.6907 10.6758 9.6907Z" fill="black"/>
<path d="M23.2497 19.484C20.8551 18.8572 19.1826 16.6872 19.1826 14.2068V11.2952C19.1826 10.6866 18.6875 10.1915 18.0789 10.1915H15.7835V7.3579H16.7817C17.1082 7.3579 17.397 7.16178 17.5174 6.85827C17.6378 6.55472 17.562 6.21397 17.3243 5.99015L11.101 0.130785C11.0985 0.128433 11.096 0.126129 11.0935 0.123873C11.005 0.0452491 10.8912 0.00195312 10.773 0.00195312C10.6576 0.00195312 10.5459 0.0433771 10.4585 0.118593C10.4558 0.120897 10.4531 0.123297 10.4504 0.125649L4.03649 5.98189C3.79337 6.20389 3.71316 6.54565 3.8322 6.85261C3.95124 7.15957 4.24092 7.3579 4.57016 7.3579H5.55262V12.3074H1.3434C1.29238 12.3074 1.24395 12.3181 1.19998 12.3372V10.5514C1.19998 10.3526 1.0388 10.1914 0.83998 10.1914C0.641164 10.1914 0.47998 10.3526 0.47998 10.5514V23.3612C0.47998 23.5601 0.641164 23.7213 0.83998 23.7213C1.0388 23.7213 1.19998 23.5601 1.19998 23.3612V21.8804C1.23939 21.8952 1.28187 21.9037 1.32646 21.9037H5.55262V23.4864C5.55262 23.7677 5.78283 23.9966 6.06584 23.9966H8.15667C8.438 23.9966 8.66686 23.7677 8.66686 23.4864V17.4545H12.6663V23.4864C12.6663 23.7677 12.8965 23.9966 13.1794 23.9966H15.2703C15.5533 23.9966 15.7835 23.7677 15.7835 23.4864V19.2988C17.0486 22.068 19.8442 23.9972 23.0823 23.9972H23.1526C23.1548 23.9972 23.1571 23.9972 23.1593 23.9972C23.2027 23.9972 23.2463 23.9894 23.2879 23.9736C23.438 23.9164 23.5306 23.7675 23.5187 23.6103V19.8323C23.5186 19.6685 23.4081 19.5254 23.2497 19.484ZM4.50348 6.59226C4.48577 6.54661 4.51299 6.52179 4.52196 6.51359L10.7705 0.808545L16.8307 6.51431C16.8394 6.52256 16.866 6.54757 16.8481 6.59274C16.8302 6.63791 16.7936 6.63786 16.7816 6.63786H15.4387C15.4336 6.63762 15.4286 6.63709 15.4234 6.63709C15.4183 6.63709 15.4132 6.63767 15.4081 6.63786H5.92788C5.92275 6.63762 5.91771 6.63709 5.91257 6.63709C5.90744 6.63709 5.90235 6.63767 5.89726 6.63786H4.57011C4.55801 6.63786 4.52115 6.63786 4.50348 6.59226ZM15.0634 7.35786V15.6518V15.9637C15.0632 15.9683 15.0627 15.9729 15.0627 15.9776C15.0627 15.9961 15.0633 16.0145 15.0634 16.0329V16.7344H13.0401C13.0355 16.7342 13.0309 16.7337 13.0262 16.7337C13.0215 16.7337 13.017 16.7342 13.0123 16.7344H8.32078C8.31612 16.7342 8.31156 16.7337 8.30686 16.7337C8.30216 16.7337 8.2976 16.7342 8.29294 16.7344H6.27262V15.6518V7.35786H15.0634ZM1.19993 15.9649C1.23776 15.9784 1.27832 15.9861 1.32075 15.9861H5.55257V18.225H1.33208C1.28537 18.225 1.24092 18.2341 1.19998 18.2503L1.19993 15.9649ZM1.3434 13.0273H5.55257V15.2661H1.3208C1.27836 15.2661 1.2378 15.2739 1.19998 15.2874V12.9975C1.2439 13.0166 1.29238 13.0273 1.3434 13.0273ZM1.32641 21.1837C1.28182 21.1837 1.23934 21.1922 1.19993 21.207V18.9196C1.24088 18.9357 1.28537 18.9449 1.33203 18.9449H5.55252V21.1837H1.32641ZM7.94681 23.2766H6.27257V17.4545H7.94681V23.2766ZM13.3862 23.2766V17.4545H15.0634V23.2766H13.3862ZM22.7986 23.2717C18.9235 23.1227 15.8134 19.9384 15.7835 16.0343V15.6518V10.9114H18.0789C18.2905 10.9114 18.4626 11.0836 18.4626 11.2951V14.2068C18.4626 16.9207 20.2318 19.3064 22.7986 20.1036V23.2717Z" fill="black"/>
</g>
<defs>
<clipPath id="clip0_586_14679">
<rect width="24" height="24" fill="white"/>
</clipPath>
</defs>
</svg>
