<svg width="24" height="24" viewBox="0 0 24 24" fill="none" xmlns="http://www.w3.org/2000/svg">
<g clip-path="url(#clip0_586_2856)">
<path d="M4 12C4 13.0506 4.20693 14.0909 4.60896 15.0615C5.011 16.0321 5.60028 16.914 6.34315 17.6569C7.08601 18.3997 7.96793 18.989 8.93853 19.391C9.90914 19.7931 10.9494 20 12 20C13.0506 20 14.0909 19.7931 15.0615 19.391C16.0321 18.989 16.914 18.3997 17.6569 17.6569C18.3997 16.914 18.989 16.0321 19.391 15.0615C19.7931 14.0909 20 13.0506 20 12C20 10.9494 19.7931 9.90914 19.391 8.93853C18.989 7.96793 18.3997 7.08601 17.6569 6.34315C16.914 5.60028 16.0321 5.011 15.0615 4.60896C14.0909 4.20693 13.0506 4 12 4C10.9494 4 9.90914 4.20693 8.93853 4.60896C7.96793 5.011 7.08601 5.60028 6.34315 6.34315C5.60028 7.08601 5.011 7.96793 4.60896 8.93853C4.20693 9.90914 4 10.9494 4 12Z" stroke="black" stroke-linecap="round" stroke-linejoin="round"/>
<path d="M7 6C7.62934 6.7559 8.1327 7.68087 8.4773 8.71467C8.8219 9.74846 9 10.8679 9 12C9 13.1321 8.8219 14.2515 8.4773 15.2853C8.1327 16.3191 7.62934 17.2441 7 18" stroke="black" stroke-linecap="round" stroke-linejoin="round"/>
<path d="M17 6C16.3707 6.7559 15.8673 7.68087 15.5227 8.71467C15.1781 9.74846 15 10.8679 15 12C15 13.1321 15.1781 14.2515 15.5227 15.2853C15.8673 16.3191 16.3707 17.2441 17 18" stroke="black" stroke-linecap="round" stroke-linejoin="round"/>
</g>
<defs>
<clipPath id="clip0_586_2856">
<rect width="24" height="24" fill="white"/>
</clipPath>
</defs>
</svg>
