<svg width="24" height="24" viewBox="0 0 24 24" fill="none" xmlns="http://www.w3.org/2000/svg">
<g clip-path="url(#clip0_586_14663)">
<path fill-rule="evenodd" clip-rule="evenodd" d="M16.4519 17.5517H7.63942C7.59255 17.5517 7.54567 17.5517 7.54567 17.5517C7.4988 17.506 6.04567 17.0489 4.6863 15.4492C3.88942 14.4893 3.32692 13.3466 2.90505 12.0668C2.4363 10.467 2.2488 8.59303 2.38942 6.53619C2.38942 6.44477 2.4363 6.35336 2.53005 6.30765H2.6238H2.67067C2.76442 6.30765 2.85817 6.35336 2.90505 6.44477C3.88942 7.86171 6.70192 7.99883 8.71755 7.99883C9.5613 7.99883 10.3582 7.95312 11.1082 7.95312C11.6707 7.90742 12.2332 7.90742 12.7019 7.90742C12.7488 7.90742 13.03 7.86171 13.2644 7.54176C13.4519 7.2218 13.6863 6.39907 12.8894 4.38793C12.2332 2.97099 12.5613 1.96543 12.9363 1.37123C13.4988 0.502784 14.6238 0 15.7957 0C16.5457 0 17.2488 0.18283 17.7644 0.594199C18.3738 1.05128 18.7488 1.69118 18.8425 2.51392C18.8425 2.60533 18.9363 3.19953 18.8894 3.83944C18.7488 4.70788 18.3269 5.30208 17.6707 5.53062C17.6238 6.39907 17.7175 8.22737 18.6082 8.59303H18.655C19.5457 9.23294 20.155 10.1014 20.4363 11.1069C20.7175 12.0668 20.7175 13.0267 20.4363 14.0322C19.8738 15.9977 18.3269 17.4146 16.4988 17.5517H16.4519ZM7.6863 17.0032H16.4519C18.0457 16.8661 19.405 15.632 19.8738 13.8951C20.2957 12.3868 20.1082 10.3756 18.3269 9.09581C17.7175 8.82157 17.2957 8.09025 17.155 6.90185C17.0613 6.07911 17.1082 5.30208 17.1082 5.30208C17.1082 5.16496 17.2019 5.07354 17.3425 5.02784C18.7019 4.75359 18.28 2.65104 18.28 2.60533C18.0925 1.09698 16.8738 0.548491 15.7957 0.548491C14.8113 0.548491 13.8738 0.95986 13.405 1.69118C12.9832 2.33109 12.9832 3.19953 13.405 4.15939V4.2051C14.1082 5.89628 14.2019 7.13039 13.7332 7.86171C13.3582 8.4102 12.7488 8.45591 12.7488 8.45591H12.7019C12.28 8.45591 11.7175 8.45591 11.1082 8.50162C10.3582 8.50162 9.5613 8.54732 8.71755 8.54732C6.79567 8.54732 4.26442 8.4102 2.90505 7.26751C2.76442 11.3355 4.03005 13.758 5.10817 15.0835C6.28005 16.409 7.45192 16.9118 7.6863 17.0032Z" fill="black"/>
<path fill-rule="evenodd" clip-rule="evenodd" d="M18.6094 5.90025C17.9062 5.90025 17.2969 5.71742 17.25 5.71742C17.1094 5.67171 17.0156 5.53459 17.0625 5.35176C17.1094 5.21464 17.25 5.12322 17.3906 5.16893C17.4375 5.16893 19.125 5.62601 20.1094 4.94039C20.5312 4.62044 20.7656 4.16336 20.8594 3.52346L18.375 2.65501C18.2344 2.6093 18.1406 2.47218 18.1875 2.33506C18.2344 2.15223 18.4219 2.10652 18.5625 2.15223L21.2344 3.11209C21.375 3.1578 21.4219 3.24921 21.4219 3.34063C21.375 4.25478 21.0469 4.94039 20.4375 5.39747C19.9219 5.76313 19.2187 5.90025 18.6094 5.90025Z" fill="black"/>
<path fill-rule="evenodd" clip-rule="evenodd" d="M16.3594 3.84298C15.7969 3.84298 15.3281 3.3859 15.3281 2.7917C15.3281 2.24321 15.7969 1.78613 16.3594 1.78613C16.9219 1.78613 17.3906 2.24321 17.3906 2.7917C17.3906 3.3859 16.9219 3.84298 16.3594 3.84298ZM16.3594 2.33462C16.0781 2.33462 15.8906 2.56316 15.8906 2.7917C15.8906 3.06595 16.0781 3.29448 16.3594 3.29448C16.5938 3.29448 16.8281 3.06595 16.8281 2.7917C16.8281 2.56316 16.5938 2.33462 16.3594 2.33462Z" fill="black"/>
<path fill-rule="evenodd" clip-rule="evenodd" d="M11.4844 14.3554C9.28125 14.3554 7.03125 13.8069 7.03125 12.7099C7.03125 11.6129 9.28125 11.0645 11.4844 11.0645C13.6875 11.0645 15.9375 11.6129 15.9375 12.7099C15.9375 13.8069 13.6875 14.3554 11.4844 14.3554ZM11.4844 11.6129C9.09375 11.6129 7.59375 12.2529 7.59375 12.7099C7.59375 13.167 9.09375 13.8069 11.4844 13.8069C13.8281 13.8069 15.375 13.167 15.375 12.7099C15.375 12.2529 13.8281 11.6129 11.4844 11.6129Z" fill="black"/>
<path fill-rule="evenodd" clip-rule="evenodd" d="M20.7642 21.7144C19.6394 21.7144 18.5146 21.2211 17.7178 20.3755C16.1712 18.7548 13.6872 18.7548 12.1406 20.3755C11.3439 21.2211 10.219 21.7144 9.04734 21.7144C7.92252 21.7144 6.7977 21.2211 6.00095 20.3755C4.45432 18.7548 1.97034 18.7548 0.423707 20.3755C0.329972 20.5165 0.142502 20.446 0.0487666 20.3051C-0.0449686 20.0937 0.00189899 19.8118 0.142502 19.6709C0.939251 18.8253 2.06407 18.332 3.23576 18.332C4.36058 18.332 5.48541 18.8253 6.28215 19.6709C7.82878 21.2916 10.3128 21.2916 11.8594 19.6709C12.6561 18.8253 13.781 18.332 14.9527 18.332C16.0775 18.332 17.2023 18.8253 17.9991 19.6709C19.5457 21.2916 22.0297 21.2916 23.5763 19.6709C23.67 19.53 23.8575 19.6004 23.9512 19.8118C24.045 19.9527 23.9981 20.2346 23.8575 20.3755C23.0607 21.2211 21.9359 21.7144 20.7642 21.7144Z" fill="black"/>
<path fill-rule="evenodd" clip-rule="evenodd" d="M20.7656 24.0004C19.6406 24.0004 18.5156 23.4671 17.7187 22.553C16.1718 20.8008 13.6874 20.8008 12.1406 22.553C11.3437 23.4671 10.2187 24.0004 9.04682 24.0004C7.92182 24.0004 6.79682 23.4671 5.99995 22.553C4.45307 20.8008 1.9687 20.8008 0.421821 22.553C0.328071 22.7053 0.140571 22.6291 0.0468212 22.4768C-0.0469288 22.2482 -5.38303e-05 21.9435 0.140571 21.7912C0.937446 20.877 2.06245 20.3438 3.23432 20.3438C4.35932 20.3438 5.48432 20.877 6.2812 21.7912C7.82807 23.5433 10.3124 23.5433 11.8593 21.7912C12.6562 20.877 13.7812 20.3438 14.9531 20.3438C16.0781 20.3438 17.2031 20.877 17.9999 21.7912C19.5468 23.5433 22.0312 23.5433 23.5781 21.7912C23.6718 21.6388 23.8593 21.715 23.9531 21.9435C24.0468 22.1721 23.9999 22.4006 23.8593 22.553C23.0624 23.4671 21.9374 24.0004 20.7656 24.0004Z" fill="black"/>
</g>
<defs>
<clipPath id="clip0_586_14663">
<rect width="24" height="24" fill="white"/>
</clipPath>
</defs>
</svg>
