<svg width="24" height="24" viewBox="0 0 24 24" fill="none" xmlns="http://www.w3.org/2000/svg">
<g clip-path="url(#clip0_586_2882)">
<path d="M4 12C4 13.0506 4.20693 14.0909 4.60896 15.0615C5.011 16.0321 5.60028 16.914 6.34315 17.6569C7.08601 18.3997 7.96793 18.989 8.93853 19.391C9.90914 19.7931 10.9494 20 12 20C13.0506 20 14.0909 19.7931 15.0615 19.391C16.0321 18.989 16.914 18.3997 17.6569 17.6569C18.3997 16.914 18.989 16.0321 19.391 15.0615C19.7931 14.0909 20 13.0506 20 12C20 10.9494 19.7931 9.90914 19.391 8.93853C18.989 7.96793 18.3997 7.08601 17.6569 6.34315C16.914 5.60028 16.0321 5.011 15.0615 4.60896C14.0909 4.20693 13.0506 4 12 4C10.9494 4 9.90914 4.20693 8.93853 4.60896C7.96793 5.011 7.08601 5.60028 6.34315 6.34315C5.60028 7.08601 5.011 7.96793 4.60896 8.93853C4.20693 9.90914 4 10.9494 4 12Z" stroke="black" stroke-linecap="round" stroke-linejoin="round"/>
<path d="M7 7L17 17" stroke="black" stroke-linecap="round" stroke-linejoin="round"/>
<path d="M6 18L18 6" stroke="black" stroke-linecap="round" stroke-linejoin="round"/>
<path d="M12 4C12 6.12173 12.8429 8.15656 14.3431 9.65685C15.8434 11.1571 17.8783 12 20 12" stroke="black" stroke-linecap="round" stroke-linejoin="round"/>
<path d="M4 12C6.12173 12 8.15656 12.8429 9.65685 14.3431C11.1571 15.8434 12 17.8783 12 20" stroke="black" stroke-linecap="round" stroke-linejoin="round"/>
</g>
<defs>
<clipPath id="clip0_586_2882">
<rect width="24" height="24" fill="white"/>
</clipPath>
</defs>
</svg>
