<svg width="24" height="24" viewBox="0 0 24 24" fill="none" xmlns="http://www.w3.org/2000/svg">
<g clip-path="url(#clip0_586_14640)">
<path d="M10.5655 15.6709L7.41113 20.9909" stroke="black" stroke-miterlimit="10" stroke-linecap="round" stroke-linejoin="round"/>
<path d="M13.5864 15.6709L17.4401 23.3459" stroke="black" stroke-miterlimit="10" stroke-linecap="round" stroke-linejoin="round"/>
<path d="M7.88574 21.5195H16.5229" stroke="black" stroke-miterlimit="10" stroke-linecap="round" stroke-linejoin="round"/>
<path d="M18.8687 9.51953C18.8687 12.5195 15.8278 15.8524 12.0765 15.8524C8.32515 15.8524 5.28418 12.5195 5.28418 9.51953H18.8687Z" stroke="black" stroke-miterlimit="10" stroke-linecap="round" stroke-linejoin="round"/>
<path d="M8.83838 12.9465C8.2813 12.4173 7.8746 11.7779 7.67285 11.0732" stroke="black" stroke-miterlimit="10" stroke-linecap="round" stroke-linejoin="round"/>
<path d="M6.57329 23.3455C7.34808 23.3455 7.97617 22.7599 7.97617 22.0375C7.97617 21.3151 7.34808 20.7295 6.57329 20.7295C5.7985 20.7295 5.17041 21.3151 5.17041 22.0375C5.17041 22.7599 5.7985 23.3455 6.57329 23.3455Z" stroke="black" stroke-miterlimit="10" stroke-linecap="round" stroke-linejoin="round"/>
<path d="M5.28403 9.51953H4.43994" stroke="black" stroke-miterlimit="10" stroke-linecap="round" stroke-linejoin="round"/>
<path d="M20.9999 11.5195H18.4473" stroke="black" stroke-miterlimit="10" stroke-linecap="round" stroke-linejoin="round"/>
<path d="M11.282 0.892578C11.282 0.892578 12.8467 1.32658 10.8417 4.19178C8.83691 7.05668 10.8417 7.23038 10.8417 7.23038" stroke="black" stroke-miterlimit="10" stroke-linecap="round" stroke-linejoin="round"/>
<path d="M13.8692 3.61914C13.8692 3.61914 14.7607 3.86664 13.6187 5.49914C12.476 7.13164 13.6187 7.23064 13.6187 7.23064" stroke="black" stroke-miterlimit="10" stroke-linecap="round" stroke-linejoin="round"/>
</g>
<defs>
<clipPath id="clip0_586_14640">
<rect width="24" height="24" fill="white"/>
</clipPath>
</defs>
</svg>
