<svg width="24" height="24" viewBox="0 0 24 24" fill="none" xmlns="http://www.w3.org/2000/svg">
<g clip-path="url(#clip0_586_14689)">
<path fill-rule="evenodd" clip-rule="evenodd" d="M23.1094 24H20.7656C20.625 24 20.4375 23.8594 20.4375 23.6719V4.54688C20.4375 3.65625 19.7344 2.95312 18.8438 2.95312H5.15625C4.26562 2.95312 3.5625 3.65625 3.5625 4.54688V23.6719C3.5625 23.8594 3.375 24 3.23438 24H0.890625C0.703125 24 0.5625 23.8594 0.5625 23.6719V4.54688C0.5625 2.0625 2.625 0 5.15625 0H18.8438C21.375 0 23.4375 2.0625 23.4375 4.54688V23.6719C23.4375 23.8594 23.2969 24 23.1094 24ZM21.0938 23.3438H22.7812V4.54688C22.7812 2.39062 21 0.65625 18.8438 0.65625H5.15625C3 0.65625 1.21875 2.39062 1.21875 4.54688V23.3438H2.90625V4.54688C2.90625 3.32812 3.89062 2.29688 5.15625 2.29688H18.8438C20.1094 2.29688 21.0938 3.32812 21.0938 4.54688V23.3438Z" fill="black"/>
<path fill-rule="evenodd" clip-rule="evenodd" d="M10.2188 16.5C10.0312 16.5 9.89062 16.3594 9.89062 16.1719V2.625C9.89062 2.4375 10.0312 2.29688 10.2188 2.29688C10.4062 2.29688 10.5469 2.4375 10.5469 2.625V16.1719C10.5469 16.3594 10.4062 16.5 10.2188 16.5ZM6.51562 16.5C6.32812 16.5 6.1875 16.3594 6.1875 16.1719V2.625C6.1875 2.4375 6.32812 2.29688 6.51562 2.29688C6.70312 2.29688 6.84375 2.4375 6.84375 2.625V16.1719C6.84375 16.3594 6.70312 16.5 6.51562 16.5Z" fill="black"/>
<path fill-rule="evenodd" clip-rule="evenodd" d="M17.4844 12.2812C17.2969 12.2812 17.1562 12.1406 17.1562 11.9531V2.625C17.1562 2.4375 17.2969 2.29688 17.4844 2.29688C17.6719 2.29688 17.8125 2.4375 17.8125 2.625V11.9531C17.8125 12.1406 17.6719 12.2812 17.4844 12.2812ZM13.7812 12.2812C13.5938 12.2812 13.4531 12.1406 13.4531 11.9531V2.625C13.4531 2.4375 13.5938 2.29688 13.7812 2.29688C13.9688 2.29688 14.1094 2.4375 14.1094 2.625V11.9531C14.1094 12.1406 13.9688 12.2812 13.7812 12.2812Z" fill="black"/>
<path fill-rule="evenodd" clip-rule="evenodd" d="M18.4219 16.5H12.8438C12.6562 16.5 12.5156 16.3125 12.5156 16.1719V13.0312C12.5156 12.2344 13.1719 11.5781 13.9219 11.5781H17.2969C18.0938 11.5781 18.75 12.2344 18.75 13.0312V16.1719C18.75 16.3125 18.6094 16.5 18.4219 16.5ZM13.1719 15.8438H18.0938V13.0312C18.0938 12.6094 17.7188 12.2344 17.2969 12.2344H13.9219C13.5 12.2344 13.1719 12.6094 13.1719 13.0312V15.8438Z" fill="black"/>
<path fill-rule="evenodd" clip-rule="evenodd" d="M18.4688 18.1406H12.75C12.1406 18.1406 11.625 17.625 11.625 16.9688C11.625 16.3594 12.1406 15.8438 12.75 15.8438H18.4688C19.125 15.8438 19.6406 16.3594 19.6406 16.9688C19.6406 17.625 19.125 18.1406 18.4688 18.1406ZM12.75 16.5C12.5156 16.5 12.2812 16.6875 12.2812 16.9688C12.2812 17.25 12.5156 17.4844 12.75 17.4844H18.4688C18.75 17.4844 18.9844 17.25 18.9844 16.9688C18.9844 16.6875 18.75 16.5 18.4688 16.5H12.75Z" fill="black"/>
<path fill-rule="evenodd" clip-rule="evenodd" d="M11.1562 20.7188H5.57812C5.39062 20.7188 5.25 20.5781 5.25 20.3906V17.25C5.25 16.4531 5.90625 15.8438 6.70312 15.8438H10.0781C10.8281 15.8438 11.4844 16.4531 11.4844 17.25V20.3906C11.4844 20.5781 11.3438 20.7188 11.1562 20.7188ZM5.90625 20.0625H10.8281V17.25C10.8281 16.8281 10.5 16.5 10.0781 16.5H6.70312C6.28125 16.5 5.90625 16.8281 5.90625 17.25V20.0625Z" fill="black"/>
<path fill-rule="evenodd" clip-rule="evenodd" d="M11.25 22.3594H5.53125C4.875 22.3594 4.35938 21.8438 4.35938 21.1875C4.35938 20.5781 4.875 20.0625 5.53125 20.0625H11.25C11.8594 20.0625 12.375 20.5781 12.375 21.1875C12.375 21.8438 11.8594 22.3594 11.25 22.3594ZM5.53125 20.7188C5.25 20.7188 5.01562 20.9531 5.01562 21.1875C5.01562 21.4688 5.25 21.7031 5.53125 21.7031H11.25C11.4844 21.7031 11.7188 21.4688 11.7188 21.1875C11.7188 20.9531 11.4844 20.7188 11.25 20.7188H5.53125Z" fill="black"/>
</g>
<defs>
<clipPath id="clip0_586_14689">
<rect width="24" height="24" fill="white"/>
</clipPath>
</defs>
</svg>
