<svg width="24" height="24" viewBox="0 0 24 24" fill="none" xmlns="http://www.w3.org/2000/svg">
<path d="M9.4332 15.5996C9.1542 16.2134 8.5134 16.487 7.9455 16.784L4.6641 18.5003C3.3456 19.1906 4.0035 20.9996 5.4174 20.9996C8.5602 20.9996 11.046 19.475 13.8864 18.2996C14.6019 18.0035 14.9484 18.0665 15.6504 18.3815" stroke="black" stroke-linecap="round" stroke-linejoin="round"/>
<path d="M9.35039 18.3819C10.0524 18.0669 10.3989 18.0039 11.1144 18.3C13.9548 19.4754 16.4406 21 19.5834 21C20.9964 21 21.6552 19.191 20.3367 18.5007L17.0553 16.7844C16.4874 16.4874 15.8457 16.2138 15.5676 15.6M12.0504 8.4C10.6182 8.4 9.24471 8.96893 8.23201 9.98162C7.21932 10.9943 6.65039 12.3678 6.65039 13.8C8.08256 13.8 9.45607 13.2311 10.4688 12.2184C11.4815 11.2057 12.0504 9.83217 12.0504 8.4ZM12.0504 8.4C13.4826 8.4 14.8561 8.96893 15.8688 9.98162C16.8815 10.9943 17.4504 12.3678 17.4504 13.8C16.0182 13.8 14.6447 13.2311 13.632 12.2184C12.6193 11.2057 12.0504 9.83217 12.0504 8.4ZM10.2504 4.8C10.2504 5.27739 10.44 5.73523 10.7776 6.07279C11.1152 6.41036 11.573 6.6 12.0504 6.6C12.5278 6.6 12.9856 6.41036 13.3232 6.07279C13.6607 5.73523 13.8504 5.27739 13.8504 4.8C13.8504 4.32261 13.6607 3.86477 13.3232 3.52721C12.9856 3.18964 12.5278 3 12.0504 3C11.573 3 11.1152 3.18964 10.7776 3.52721C10.44 3.86477 10.2504 4.32261 10.2504 4.8Z" stroke="black" stroke-linecap="round" stroke-linejoin="round"/>
</svg>
