<svg width="24" height="24" viewBox="0 0 24 24" fill="none" xmlns="http://www.w3.org/2000/svg">
<path d="M21.9182 12.3346C21.863 12.2771 21.7867 12.2447 21.707 12.2447H21.5938C21.6198 11.35 21.595 10.7968 21.5939 10.7713C21.5866 10.615 21.4577 10.4919 21.3012 10.4919H9.1592V8.75321C9.1592 7.47149 8.11646 6.42871 6.8347 6.42871H5.65047C4.36875 6.42871 3.32597 7.47149 3.32597 8.75321V10.4919H2.69882C2.5423 10.4919 2.41343 10.6149 2.40616 10.7713C2.40499 10.7968 2.38019 11.3499 2.40652 12.2447H2.29296C2.21327 12.2447 2.13702 12.2771 2.08179 12.3346C2.02655 12.392 1.9971 12.4694 2.00023 12.549C2.02757 13.2492 2.07964 13.9559 2.15503 14.6496C2.19003 14.9719 2.23101 15.2969 2.27679 15.6155C2.29749 15.7597 2.42105 15.8668 2.56679 15.8668H2.73453C2.92386 17.0858 3.18808 18.2229 3.52093 19.2502C3.56105 19.3741 3.67597 19.4529 3.79957 19.4529C3.82953 19.4529 3.85996 19.4483 3.88992 19.4386C4.04383 19.3888 4.1282 19.2235 4.07832 19.0696C3.76324 18.097 3.51136 17.0209 3.32793 15.8668H5.19641C5.44125 18.0324 5.84965 19.8948 6.41243 21.4142H5.46993C5.21387 21.4142 4.98407 21.271 4.87008 21.0406C4.72551 20.7481 4.5877 20.4397 4.46047 20.1239C4.40004 19.9738 4.22953 19.9011 4.07922 19.9616C3.92914 20.0221 3.85648 20.1927 3.91695 20.3428C4.04969 20.6724 4.19367 20.9945 4.34484 21.3003C4.55836 21.732 4.9895 22.0001 5.46997 22.0001H18.5301C19.0102 22.0001 19.4404 21.734 19.6529 21.3054C20.3966 19.8025 20.938 17.9733 21.2648 15.8668H21.4333C21.579 15.8668 21.7026 15.7597 21.7233 15.6155C21.7692 15.2957 21.8102 14.9707 21.845 14.6496C21.9204 13.9558 21.9725 13.249 21.9998 12.549C22.0029 12.4694 21.9734 12.392 21.9182 12.3346ZM21.0075 12.2447H19.0422C19.0531 11.7308 19.0519 11.3303 19.0486 11.0779H21.0162C21.0207 11.3265 21.0227 11.7304 21.0075 12.2447ZM14.6599 12.2447C14.6636 11.7335 14.663 11.3305 14.6618 11.0779H18.4624C18.4657 11.3271 18.4672 11.7303 18.4561 12.2447H14.6599ZM9.92635 12.2447C9.92244 11.732 9.92295 11.3288 9.92409 11.0779H14.0759C14.0771 11.3288 14.0777 11.7321 14.074 12.2447H9.92635ZM5.54387 12.2447C5.53278 11.7308 5.53426 11.3274 5.53751 11.0779H9.33815C9.33701 11.3305 9.3365 11.7334 9.34037 12.2447H5.54387ZM8.57326 8.75325V10.4918H5.0961V8.75325C5.0961 7.79461 5.87602 7.01469 6.8347 7.01469C7.79333 7.01469 8.57326 7.79461 8.57326 8.75325ZM3.91191 8.75325C3.91191 7.9359 4.47906 7.24887 5.24039 7.06399C4.79129 7.48809 4.5102 8.08825 4.5102 8.75325V10.492H3.91191V8.75325ZM2.98375 11.0779H4.95133C4.94809 11.3303 4.9468 11.7308 4.95778 12.2447H2.99277C2.97742 11.7304 2.97937 11.3265 2.98375 11.0779ZM5.78618 15.8668H9.42471C9.51119 18.0391 9.65561 19.902 9.85483 21.4142H7.03896C6.4586 19.9194 6.03778 18.0557 5.78618 15.8668ZM14.1451 21.4142C14.3443 19.9021 14.4891 18.0392 14.576 15.8668H18.2138C17.9622 18.0557 17.5413 19.9194 16.9609 21.4142H14.1451ZM13.554 21.4142H10.446C10.2446 19.9117 10.0985 18.0484 10.0112 15.8668H13.9895C13.9018 18.0486 13.7555 19.9118 13.554 21.4142ZM19.1278 21.0454C19.0167 21.2694 18.7821 21.4142 18.5301 21.4142H17.5876C18.1503 19.8948 18.5588 18.0324 18.8036 15.8668H20.672C20.3532 17.8762 19.8344 19.6174 19.1278 21.0454ZM21.2625 14.5863C21.2374 14.817 21.2092 15.0497 21.1781 15.2809H2.82187C2.79093 15.0503 2.76265 14.8176 2.73753 14.5863C2.67453 14.0064 2.62812 13.4172 2.59917 12.8306H21.4008C21.3719 13.4171 21.3255 14.0063 21.2625 14.5863Z" fill="black"/>
<path d="M12.5541 7.46776C12.6036 7.48022 12.6496 7.49178 12.6917 7.5026C13.0309 7.58947 13.2734 7.77674 13.393 8.04416C13.5177 8.32288 13.4996 8.66757 13.3446 8.96624C13.2964 9.05909 13.3014 9.17061 13.3577 9.25882C13.4116 9.34339 13.5049 9.39421 13.6046 9.39421C13.6088 9.39421 13.6132 9.39413 13.6175 9.39394C14.319 9.36315 15.5497 9.17335 15.9095 8.24803C16.1115 7.72869 15.9525 7.10342 15.5043 6.65502C15.3553 6.50599 15.2963 6.36185 15.3289 6.22662C15.3693 6.05892 15.6258 5.61638 17.1306 5.13044C19.108 4.49185 19.4595 3.20321 19.3554 2.54242C19.2762 2.0391 18.9858 2 18.8987 2C18.7888 2 18.6882 2.06148 18.6381 2.15926C18.5863 2.26008 18.3753 2.43496 17.5432 2.47344C16.8741 2.50434 16.0044 2.44141 15.0836 2.37469L14.8005 2.35426C14.6382 2.34262 14.4989 2.46418 14.4874 2.62559C14.4758 2.78696 14.5973 2.92715 14.7587 2.93871L15.0413 2.95911C16.7087 3.07989 18.094 3.18024 18.7852 2.79684C18.7818 2.90348 18.7617 3.03438 18.7097 3.17985C18.4342 3.95052 17.6009 4.36274 16.9504 4.57282C15.6182 5.0031 14.9014 5.49912 14.7591 6.08931C14.6779 6.42666 14.7954 6.77471 15.0899 7.06928C15.3739 7.35334 15.4812 7.73268 15.3634 8.03565C15.2168 8.41249 14.7392 8.67143 14.0281 8.76983C14.0931 8.44065 14.0605 8.10131 13.9279 7.80491C13.7355 7.37483 13.3481 7.06588 12.8371 6.93506C12.7943 6.92408 12.7475 6.91228 12.697 6.89959C11.9533 6.71248 10.2116 6.27435 9.60916 5.26302C9.38471 4.88622 9.33576 4.46728 9.45951 3.98235C9.75369 2.83067 11.7202 2.772 13.6051 2.86649C13.7686 2.8745 13.9043 2.75012 13.9124 2.58856C13.9205 2.42695 13.7961 2.28938 13.6345 2.28129C12.3016 2.21449 11.388 2.25617 10.6726 2.41649C9.67471 2.64012 9.07556 3.11817 8.89181 3.83739C8.72982 4.47204 8.80181 5.05259 9.1058 5.56287C9.83275 6.78314 11.6708 7.24553 12.5541 7.46776Z" fill="black"/>
</svg>
