<svg width="24" height="24" viewBox="0 0 24 24" fill="none" xmlns="http://www.w3.org/2000/svg">
<path d="M15.75 10.8545C16.1208 10.8545 16.4833 10.7445 16.7917 10.5385C17.1 10.3325 17.3404 10.0396 17.4823 9.69704C17.6242 9.35442 17.6613 8.97742 17.589 8.61371C17.5166 8.24999 17.3381 7.9159 17.0758 7.65367C16.8136 7.39145 16.4795 7.21287 16.1158 7.14052C15.7521 7.06817 15.3751 7.1053 15.0325 7.24722C14.6899 7.38913 14.397 7.62946 14.191 7.9378C13.985 8.24614 13.875 8.60866 13.875 8.9795C13.8756 9.47661 14.0733 9.9532 14.4248 10.3047C14.7763 10.6562 15.2529 10.8539 15.75 10.8545ZM15.75 7.7295C15.9972 7.7295 16.2389 7.80281 16.4445 7.94016C16.65 8.07751 16.8102 8.27273 16.9048 8.50114C16.9995 8.72955 17.0242 8.98088 16.976 9.22336C16.9277 9.46583 16.8087 9.68856 16.6339 9.86338C16.4591 10.0382 16.2363 10.1572 15.9939 10.2055C15.7514 10.2537 15.5001 10.229 15.2716 10.1344C15.0432 10.0397 14.848 9.87953 14.7107 9.67396C14.5733 9.4684 14.5 9.22673 14.5 8.9795C14.5004 8.6481 14.6322 8.33037 14.8665 8.09603C15.1009 7.8617 15.4186 7.72988 15.75 7.7295Z" fill="black"/>
<path d="M8.09374 11.2187C8.46458 11.2187 8.82709 11.1088 9.13543 10.9028C9.44378 10.6967 9.6841 10.4039 9.82601 10.0613C9.96793 9.71867 10.0051 9.34167 9.93272 8.97796C9.86037 8.61425 9.6818 8.28015 9.41957 8.01793C9.15735 7.7557 8.82326 7.57713 8.45954 7.50478C8.09583 7.43243 7.71883 7.46956 7.37622 7.61148C7.03361 7.75339 6.74077 7.99371 6.53474 8.30205C6.32872 8.6104 6.21875 8.97291 6.21875 9.34375C6.2193 9.84086 6.41702 10.3174 6.76853 10.669C7.12004 11.0205 7.59663 11.2182 8.09374 11.2187ZM8.09374 8.09375C8.34096 8.09374 8.58264 8.16705 8.7882 8.30441C8.99377 8.44176 9.15398 8.63698 9.24859 8.86539C9.34321 9.09379 9.36796 9.34513 9.31973 9.5876C9.2715 9.83008 9.15245 10.0528 8.97763 10.2276C8.80282 10.4024 8.58009 10.5215 8.33761 10.5697C8.09514 10.618 7.8438 10.5932 7.61539 10.4986C7.38699 10.404 7.19176 10.2438 7.05441 10.0382C6.91706 9.83265 6.84375 9.59098 6.84375 9.34375C6.84412 9.01234 6.97594 8.69462 7.21028 8.46028C7.44461 8.22594 7.76233 8.09413 8.09374 8.09375Z" fill="black"/>
<path d="M11.7033 2.63593C11.7111 2.63593 11.719 2.63562 11.7269 2.63509C11.9074 2.62163 12.0887 2.62153 12.2692 2.63478C12.3519 2.64085 12.4336 2.61384 12.4963 2.55968C12.559 2.50553 12.5977 2.42867 12.6038 2.34601C12.6098 2.26335 12.5828 2.18167 12.5287 2.11893C12.4745 2.05619 12.3977 2.01753 12.315 2.01146C12.1037 1.99608 11.8915 1.99618 11.6802 2.01177C11.5996 2.01782 11.5245 2.05486 11.4706 2.11512C11.4168 2.17538 11.3883 2.25417 11.3913 2.33494C11.3943 2.41571 11.4285 2.49219 11.4866 2.54831C11.5448 2.60444 11.6224 2.63584 11.7033 2.63593Z" fill="black"/>
<path d="M10.0311 3.15652C10.0864 3.15652 10.1408 3.14172 10.1885 3.11364C10.3445 3.02247 10.5071 2.9432 10.675 2.87651C10.7132 2.86142 10.748 2.83895 10.7775 2.81038C10.807 2.78181 10.8306 2.74771 10.8469 2.71002C10.8632 2.67233 10.872 2.63179 10.8726 2.59073C10.8732 2.54966 10.8658 2.50887 10.8506 2.4707C10.8355 2.43252 10.813 2.3977 10.7844 2.36824C10.7557 2.33877 10.7216 2.31523 10.6839 2.29897C10.6462 2.28271 10.6056 2.27404 10.5646 2.27347C10.5235 2.27289 10.4827 2.28042 10.4446 2.29561C10.2473 2.37391 10.0562 2.46705 9.87297 2.57424C9.8137 2.60891 9.76751 2.66214 9.74151 2.7257C9.71552 2.78926 9.71119 2.8596 9.72918 2.92587C9.74717 2.99214 9.78649 3.05064 9.84105 3.09233C9.89561 3.13402 9.96239 3.15658 10.0311 3.15652Z" fill="black"/>
<path d="M14.9847 4.21595C15.0309 4.28471 15.1026 4.33227 15.1839 4.34818C15.2653 4.36409 15.3496 4.34705 15.4183 4.30079C15.4871 4.25453 15.5347 4.18286 15.5506 4.10153C15.5665 4.02021 15.5494 3.93589 15.5032 3.86714C15.3848 3.69116 15.2535 3.52428 15.1103 3.36787C15.0542 3.30722 14.9763 3.27126 14.8938 3.26785C14.8112 3.26443 14.7307 3.29385 14.6698 3.34967C14.6088 3.40548 14.5725 3.48315 14.5687 3.56568C14.5649 3.64821 14.5939 3.7289 14.6494 3.79008C14.7716 3.92352 14.8837 4.06587 14.9847 4.21595Z" fill="black"/>
<path d="M13.3217 2.8753C13.4897 2.94185 13.6525 3.02099 13.8086 3.11204C13.8802 3.15381 13.9654 3.16542 14.0456 3.14433C14.1258 3.12324 14.1942 3.07117 14.236 2.99958C14.2778 2.92799 14.2894 2.84274 14.2683 2.76259C14.2472 2.68244 14.1951 2.61395 14.1235 2.57218C13.9402 2.46526 13.7491 2.3723 13.5518 2.29409C13.4748 2.26384 13.3889 2.26537 13.313 2.29834C13.2371 2.33131 13.1774 2.39303 13.1469 2.46996C13.1165 2.5469 13.1178 2.63277 13.1505 2.70875C13.1833 2.78474 13.2449 2.84463 13.3217 2.8753Z" fill="black"/>
<path d="M8.58044 4.30461C8.64929 4.35073 8.73364 4.36762 8.81494 4.35155C8.89623 4.33548 8.96782 4.28778 9.01394 4.21893C9.11465 4.06877 9.22651 3.92638 9.34856 3.79299C9.37627 3.76271 9.39773 3.72727 9.41174 3.6887C9.42575 3.65012 9.43202 3.60917 9.4302 3.56817C9.42838 3.52717 9.4185 3.48693 9.40113 3.44975C9.38376 3.41257 9.35923 3.37918 9.32896 3.35148C9.29868 3.32377 9.26324 3.3023 9.22467 3.2883C9.18609 3.27429 9.14514 3.26802 9.10414 3.26984C9.06314 3.27166 9.02291 3.28154 8.98573 3.29891C8.94854 3.31628 8.91515 3.3408 8.88745 3.37108C8.74423 3.52766 8.61299 3.69478 8.49484 3.87103C8.47198 3.90512 8.45606 3.94338 8.44799 3.98362C8.43992 4.02386 8.43986 4.06529 8.44781 4.10556C8.45576 4.14582 8.47157 4.18412 8.49432 4.21828C8.51708 4.25243 8.54634 4.28177 8.58044 4.30461Z" fill="black"/>
<path d="M15.4459 5.19675C15.473 5.28936 15.4968 5.38321 15.5162 5.4756C15.5309 5.54577 15.5693 5.60875 15.6249 5.65398C15.6805 5.69922 15.75 5.72394 15.8217 5.72401C15.8434 5.72398 15.865 5.72173 15.8862 5.71729C15.9264 5.70887 15.9645 5.69261 15.9984 5.66945C16.0323 5.6463 16.0613 5.61669 16.0837 5.58233C16.1061 5.54796 16.1216 5.50952 16.1291 5.46919C16.1367 5.42885 16.1362 5.38742 16.1278 5.34727C16.1051 5.23863 16.0773 5.12853 16.0452 5.02004C16.0336 4.98068 16.0144 4.94399 15.9886 4.91206C15.9629 4.88014 15.931 4.8536 15.895 4.83397C15.859 4.81434 15.8194 4.802 15.7786 4.79765C15.7378 4.79331 15.6966 4.79705 15.6572 4.80865C15.6178 4.82025 15.5811 4.8395 15.5492 4.86528C15.5173 4.89107 15.4908 4.92289 15.4711 4.95892C15.4515 4.99496 15.4392 5.03451 15.4349 5.07532C15.4305 5.11612 15.4343 5.15739 15.4459 5.19675Z" fill="black"/>
<path d="M7.64029 6.13002C7.65635 6.17304 7.68157 6.21206 7.7142 6.24437C7.74683 6.27668 7.78609 6.30152 7.82927 6.31715C7.87245 6.33278 7.91851 6.33884 7.96426 6.3349C8.01002 6.33097 8.05437 6.31713 8.09424 6.29436L9.03998 5.73313C9.11113 5.69079 9.16258 5.62194 9.183 5.54169C9.20343 5.46145 9.19116 5.37638 9.14891 5.30517C9.10665 5.23396 9.03786 5.18243 8.95764 5.16191C8.87742 5.14139 8.79233 5.15355 8.72107 5.19572L8.52545 5.31179C8.53548 5.27319 8.54334 5.23463 8.55459 5.19626C8.5662 5.1569 8.56995 5.11564 8.56561 5.07484C8.56128 5.03403 8.54894 4.99448 8.52932 4.95844C8.5097 4.9224 8.48317 4.89058 8.45125 4.8648C8.41932 4.83901 8.38264 4.81977 8.34328 4.80817C8.30392 4.79656 8.26266 4.79283 8.22185 4.79717C8.18105 4.80152 8.1415 4.81386 8.10547 4.83349C8.06943 4.85312 8.03762 4.87965 8.01184 4.91158C7.98606 4.94351 7.96682 4.9802 7.95523 5.01956C7.94788 5.04444 7.9432 5.0696 7.9363 5.09462L7.85498 4.8653C7.8273 4.78719 7.76973 4.72328 7.69492 4.68763C7.62012 4.65197 7.53422 4.64749 7.45612 4.67517C7.37801 4.70285 7.3141 4.76043 7.27845 4.83523C7.24279 4.91003 7.23831 4.99593 7.26599 5.07404L7.64029 6.13002Z" fill="black"/>
<path d="M15.75 15.9062C15.9354 15.9062 16.1167 15.8513 16.2708 15.7482C16.425 15.6452 16.5452 15.4988 16.6161 15.3275C16.6871 15.1562 16.7056 14.9677 16.6695 14.7858C16.6333 14.604 16.544 14.4369 16.4129 14.3058C16.2818 14.1747 16.1147 14.0854 15.9329 14.0493C15.751 14.0131 15.5625 14.0317 15.3912 14.1026C15.2199 14.1736 15.0735 14.2937 14.9705 14.4479C14.8675 14.6021 14.8125 14.7833 14.8125 14.9687C14.8128 15.2173 14.9116 15.4556 15.0874 15.6314C15.2631 15.8071 15.5014 15.906 15.75 15.9062ZM15.75 14.6562C15.8118 14.6562 15.8722 14.6746 15.9236 14.7089C15.975 14.7432 16.0151 14.7921 16.0387 14.8492C16.0624 14.9063 16.0685 14.9691 16.0565 15.0297C16.0444 15.0903 16.0147 15.146 15.971 15.1897C15.9273 15.2334 15.8716 15.2632 15.811 15.2752C15.7503 15.2873 15.6875 15.2811 15.6304 15.2575C15.5733 15.2338 15.5245 15.1937 15.4902 15.1424C15.4558 15.091 15.4375 15.0306 15.4375 14.9687C15.4376 14.8859 15.4705 14.8065 15.5291 14.7479C15.5877 14.6893 15.6671 14.6563 15.75 14.6562Z" fill="black"/>
<path d="M21.3749 16.5313H19.7732L19.9663 13.7822C19.9753 13.6563 19.958 13.5299 19.9155 13.411C19.873 13.2921 19.8062 13.1833 19.7195 13.0916C19.6267 12.9933 19.5148 12.915 19.3907 12.8617C19.2665 12.8083 19.1327 12.7809 18.9976 12.7813H12.5022C12.3671 12.7809 12.2333 12.8083 12.1092 12.8617C11.985 12.915 11.8731 12.9933 11.7804 13.0916C11.6936 13.1833 11.6268 13.2921 11.5843 13.411C11.5418 13.5299 11.5245 13.6563 11.5335 13.7822L11.7266 16.5313H2.625C2.45929 16.5314 2.30042 16.5973 2.18325 16.7145C2.06608 16.8317 2.00018 16.9905 2 17.1563V17.7813C2.00018 17.947 2.06608 18.1058 2.18325 18.223C2.30042 18.3402 2.45929 18.4061 2.625 18.4063H2.93749V21.6875C2.93749 21.7704 2.97042 21.8499 3.02902 21.9085C3.08763 21.9671 3.16711 22 3.24999 22C3.33287 22 3.41236 21.9671 3.47096 21.9085C3.52957 21.8499 3.56249 21.7704 3.56249 21.6875V18.4063H20.4374V21.6875C20.4374 21.7704 20.4703 21.8499 20.5289 21.9085C20.5875 21.9671 20.667 22 20.7499 22C20.8328 22 20.9122 21.9671 20.9708 21.9085C21.0294 21.8499 21.0624 21.7704 21.0624 21.6875V18.4063H21.3749C21.5406 18.4061 21.6994 18.3402 21.8166 18.223C21.9338 18.1058 21.9997 17.947 21.9999 17.7813V17.1563C21.9997 16.9905 21.9338 16.8317 21.8166 16.7145C21.6994 16.5973 21.5406 16.5314 21.3749 16.5313ZM12.2377 13.5178C12.2718 13.4821 12.3129 13.4538 12.3584 13.4346C12.4039 13.4154 12.4529 13.4058 12.5022 13.4063H18.9976C19.0469 13.4058 19.0959 13.4154 19.1414 13.4346C19.1869 13.4538 19.228 13.4821 19.2622 13.5178C19.2902 13.547 19.3118 13.5817 19.3257 13.6196C19.3396 13.6576 19.3454 13.6981 19.3429 13.7384L19.1467 16.5313H12.3531L12.1569 13.7384C12.1544 13.6981 12.1602 13.6576 12.1741 13.6196C12.188 13.5817 12.2097 13.547 12.2377 13.5178ZM2.625 17.7813V17.1563H21.3749L21.3753 17.7813H2.625Z" fill="black"/>
<path d="M4.8125 12.4702C4.8124 12.3074 4.84461 12.1462 4.90726 11.996C4.96991 11.8458 5.06176 11.7095 5.17749 11.595C5.42109 11.3541 5.7501 11.2194 6.0927 11.2202L6.44719 11.22C6.24537 11.0427 6.07326 10.8343 5.93742 10.6025C5.48397 10.636 5.05762 10.8312 4.73605 11.1527C4.56195 11.325 4.42382 11.5302 4.32965 11.7564C4.23549 11.9826 4.18717 12.2252 4.1875 12.4702V15.9061H4.8125V12.4702Z" fill="black"/>
<path d="M5.46045 14.5V15.9062H6.08545V14.5C6.08545 14.4171 6.05252 14.3376 5.99392 14.279C5.93531 14.2204 5.85583 14.1875 5.77295 14.1875C5.69007 14.1875 5.61058 14.2204 5.55198 14.279C5.49337 14.3376 5.46045 14.4171 5.46045 14.5Z" fill="black"/>
<path d="M9.98508 12.4938C9.94329 12.4459 9.88789 12.4119 9.82627 12.3963C9.76465 12.3807 9.69974 12.3842 9.6402 12.4065C9.58066 12.4288 9.52932 12.4686 9.49304 12.5208C9.45676 12.573 9.43726 12.635 9.43714 12.6986L9.43066 15.9061H10.0557L10.0605 13.5307L10.9615 14.5632L10.9098 13.8259C10.9042 13.7375 10.9063 13.6488 10.9162 13.5608L9.98508 12.4938Z" fill="black"/>
<path d="M11.3234 12.665C11.448 12.5325 11.5944 12.4224 11.7562 12.3394L10.7707 11.2128C10.6041 11.0146 10.395 10.8564 10.1589 10.75C10.0308 10.9371 9.87795 11.1061 9.70459 11.2523C9.93584 11.3085 10.1431 11.4371 10.296 11.6194L11.2681 12.7308C11.2865 12.7088 11.3038 12.6861 11.3234 12.665Z" fill="black"/>
<path d="M12.5023 12.1565H12.9435C12.972 11.8768 13.0988 11.6163 13.3012 11.4213C13.5384 11.1904 13.8568 11.0621 14.1878 11.0639H14.1889L14.3729 11.0638C14.1383 10.9076 13.9316 10.713 13.7614 10.4883C13.4235 10.5641 13.1132 10.7321 12.865 10.9737C12.5391 11.2889 12.3438 11.7152 12.3179 12.1679C12.3791 12.1606 12.4407 12.1568 12.5023 12.1565Z" fill="black"/>
<path d="M17.1279 11.0628L17.4682 11.0627H17.4685C17.7582 11.0612 18.0369 11.1736 18.2445 11.3756C18.3449 11.4722 18.4248 11.5881 18.4794 11.7162C18.534 11.8444 18.5622 11.9823 18.5622 12.1216L18.5621 12.1561H18.9974C19.0608 12.1565 19.1242 12.1605 19.1871 12.1683L19.1872 12.1222C19.1875 11.8994 19.1428 11.6788 19.0558 11.4736C18.9688 11.2685 18.8413 11.083 18.6809 10.9283C18.4281 10.6819 18.1055 10.5194 17.757 10.4629C17.5837 10.6978 17.3708 10.9008 17.1279 11.0628Z" fill="black"/>
</svg>
