<svg width="24" height="24" viewBox="0 0 24 24" fill="none" xmlns="http://www.w3.org/2000/svg">
<path d="M22 11.6614H5.91926V4.76395C5.91926 3.88605 6.63348 3.17188 7.51133 3.17188C8.36547 3.17188 9.06445 3.84805 9.10164 4.69316C8.10551 4.92566 7.36102 5.82043 7.36102 6.88637V8.41926H12.0177V6.88637C12.0177 5.81914 11.2714 4.92352 10.2735 4.6923C10.2353 3.20133 9.01141 2 7.51137 2C5.9873 2 4.74742 3.23992 4.74742 4.76395V11.6614H2V12.8333H2.95824L4.41656 22H19.5834L21.0417 12.8333H22V11.6614ZM10.8459 7.24738H8.53293V6.96211C8.53293 6.3234 9.0507 5.80563 9.68941 5.80563C10.3281 5.80563 10.8459 6.3234 10.8459 6.96211V7.24738ZM16.3838 20.8281L16.5433 18.7983C17.1657 18.4399 17.5859 17.7683 17.5859 17V12.8333H19.8551L18.5832 20.8281H16.3838ZM5.41676 20.8281L4.14488 12.8333H6.98785L7.61621 20.8281H5.41676ZM8.16332 12.8333H10.3425V17C10.3425 17.7802 10.7757 18.461 11.4141 18.815V20.8281H8.79168L8.16332 12.8333ZM16.4141 17C16.4141 17.4975 16.0093 17.9023 15.5117 17.9023H12.4166C11.9191 17.9023 11.5143 17.4976 11.5143 17V12.8333H16.4141V17ZM12.5859 19.0742H15.3462L15.2083 20.8281H12.5859V19.0742Z" fill="black"/>
<path d="M13.9141 10.3335H15.0859C15.0859 9.95648 15.1934 9.80215 15.3714 9.54648C15.5807 9.24605 15.8672 8.83465 15.8672 8.0898C15.8672 7.34496 15.5807 6.93352 15.3714 6.63312C15.1934 6.37746 15.0859 6.22312 15.0859 5.84613C15.0859 5.46918 15.1934 5.31484 15.3714 5.05922C15.5807 4.75879 15.8672 4.34738 15.8672 3.60254H14.6953C14.6953 3.97949 14.5879 4.13383 14.4098 4.38945C14.2006 4.68988 13.9141 5.10133 13.9141 5.84613C13.9141 6.59098 14.2006 7.00242 14.4098 7.30285C14.5879 7.55852 14.6953 7.71285 14.6953 8.08984C14.6953 8.46684 14.5879 8.62117 14.4098 8.87684C14.2006 9.17723 13.9141 9.58863 13.9141 10.3335Z" fill="black"/>
<path d="M16.8306 10.3334H18.0024C18.0024 9.95645 18.1099 9.80211 18.288 9.54645C18.4972 9.24602 18.7837 8.83461 18.7837 8.08977C18.7837 7.34492 18.4972 6.93348 18.288 6.63309C18.1099 6.37742 18.0024 6.22309 18.0024 5.84609C18.0024 5.46914 18.1099 5.3148 18.288 5.05918C18.4972 4.75879 18.7837 4.34734 18.7837 3.60254H17.6118C17.6118 3.97949 17.5044 4.13383 17.3263 4.38945C17.1171 4.68984 16.8306 5.10129 16.8306 5.84609C16.8306 6.59094 17.1171 7.00238 17.3263 7.30281C17.5044 7.55848 17.6118 7.71281 17.6118 8.0898C17.6118 8.4668 17.5044 8.62113 17.3263 8.8768C17.1171 9.17719 16.8306 9.58859 16.8306 10.3334Z" fill="black"/>
</svg>
