<svg width="24" height="24" viewBox="0 0 24 24" fill="none" xmlns="http://www.w3.org/2000/svg">
<path d="M16.3083 3.99805H7.69214C6.71279 3.99805 5.77356 4.38709 5.08106 5.07959C4.38856 5.7721 3.99951 6.71133 3.99951 7.69068V16.3068C3.99951 17.2862 4.38856 18.2254 5.08106 18.9179C5.77356 19.6104 6.71279 19.9994 7.69214 19.9994H16.3083C17.2876 19.9994 18.2269 19.6104 18.9194 18.9179C19.6119 18.2254 20.0009 17.2862 20.0009 16.3068V7.69068C20.0009 6.71133 19.6119 5.7721 18.9194 5.07959C18.2269 4.38709 17.2876 3.99805 16.3083 3.99805Z" stroke="black" stroke-linecap="round" stroke-linejoin="round"/>
<path d="M9.7959 16.3244V12.7204M9.7959 12.7204V7.67383H13.7162C14.2059 7.67383 14.6755 7.86835 15.0218 8.2146C15.368 8.56085 15.5626 9.03047 15.5626 9.52014V10.8741C15.5626 11.3638 15.368 11.8334 15.0218 12.1796C14.6755 12.5259 14.2059 12.7204 13.7162 12.7204H9.7959Z" stroke="black" stroke-linecap="round" stroke-linejoin="round"/>
</svg>
